{
  "accessors": [
    {
      "bufferView": 2,
      "componentType": 5126,
      "count": 1430,
      "max": [
        0.11784099787473679,
        0.09562599658966064,
        1.8444099426269531
      ],
      "min": [
        -0.11784099787473679,
        -0.20393599569797516,
        1.6074379682540894
      ],
      "type": "VEC3"
    },
    {
      "bufferView": 2,
      "byteOffset": 17160,
      "componentType": 5126,
      "count": 1430,
      "max": [
        0.9983360767364502,
        0.9999567270278931,
        0.9997264742851257
      ],
      "min": [
        -0.9983360767364502,
        -0.9999880790710449,
        -0.9999686479568481
      ],
      "type": "VEC3"
    },
    {
      "bufferView": 3,
      "componentType": 5126,
      "count": 1430,
      "max": [
        0.999225378036499,
        0.9973189234733582,
        0.9999014735221863,
        1.0
      ],
      "min": [
        -0.9990568161010742,
        -0.9954078197479248,
        -0.9998108148574829,
        -1.0
      ],
      "type": "VEC4"
    },
    {
      "bufferView": 1,
      "componentType": 5126,
      "count": 1430,
      "max": [
        0.9350370168685913,
        0.993054986000061
      ],
      "min": [
        0.006945000030100346,
        0.006945000030100346
      ],
      "type": "VEC2"
    },
    {
      "bufferView": 0,
      "componentType": 5125,
      "count": 5616,
      "type": "SCALAR"
    }
  ],
  "asset": {
    "extras": {
      "author": "MadeByYeshe (https://sketchfab.com/MadeByYeshe)",
      "license": "CC-BY-4.0 (http://creativecommons.org/licenses/by/4.0/)",
      "source": "https://sketchfab.com/3d-models/top-hat-6194496e6c0a4822a0fe3fec6c729d60",
      "title": "Top Hat"
    },
    "generator": "Sketchfab-16.75.0",
    "version": "2.0"
  },
  "bufferViews": [
    {
      "buffer": 0,
      "byteLength": 22464,
      "name": "floatBufferViews",
      "target": 34963
    },
    {
      "buffer": 0,
      "byteLength": 11440,
      "byteOffset": 22464,
      "byteStride": 8,
      "name": "floatBufferViews",
      "target": 34962
    },
    {
      "buffer": 0,
      "byteLength": 34320,
      "byteOffset": 33904,
      "byteStride": 12,
      "name": "floatBufferViews",
      "target": 34962
    },
    {
      "buffer": 0,
      "byteLength": 22880,
      "byteOffset": 68224,
      "byteStride": 16,
      "name": "floatBufferViews",
      "target": 34962
    }
  ],
  "buffers": [
    {
      "byteLength": 91104,
      "uri": "scene.bin"
    }
  ],
  "extensionsRequired": [
    "KHR_materials_pbrSpecularGlossiness"
  ],
  "extensionsUsed": [
    "KHR_materials_pbrSpecularGlossiness"
  ],
  "images": [
    {
      "uri": "textures/Top_Hat_MH_diffuse.png"
    },
    {
      "uri": "textures/Top_Hat_MH_specularGlossiness.png"
    },
    {
      "uri": "textures/Top_Hat_MH_normal.jpeg"
    }
  ],
  "materials": [
    {
      "doubleSided": true,
      "extensions": {
        "KHR_materials_pbrSpecularGlossiness": {
          "diffuseFactor": [
            1.0,
            1.0,
            1.0,
            1.0
          ],
          "diffuseTexture": {
            "index": 0
          },
          "glossinessFactor": 1.0,
          "specularFactor": [
            0.0670567393582514,
            0.0670567393582514,
            0.0670567393582514
          ],
          "specularGlossinessTexture": {
            "index": 1
          }
        }
      },
      "name": "Top_Hat_MH",
      "normalTexture": {
        "index": 2
      }
    }
  ],
  "meshes": [
    {
      "name": "Object_0",
      "primitives": [
        {
          "attributes": {
            "NORMAL": 1,
            "POSITION": 0,
            "TANGENT": 2,
            "TEXCOORD_0": 3
          },
          "indices": 4,
          "material": 0,
          "mode": 4
        }
      ]
    }
  ],
  "nodes": [
    {
      "children": [
        1
      ],
      "matrix": [
        0.9999555945396423,
        0.009422505274415016,
        -3.3830045099902914e-18,
        0.0,
        -0.0009553651907481253,
        0.10138734430074714,
        -0.9948465824127197,
        0.0,
        -0.00937394704669714,
        0.9948024153709412,
        0.10139184445142768,
        0.0,
        0.0,
        0.0,
        0.0,
        1.0
      ],
      "name": "Sketchfab_model"
    },
    {
      "children": [
        2
      ],
      "name": "Top Hat.obj.cleaner.materialmerger.gles"
    },
    {
      "mesh": 0,
      "name": "Object_2"
    }
  ],
  "samplers": [
    {
      "magFilter": 9729,
      "minFilter": 9987,
      "wrapS": 10497,
      "wrapT": 10497
    }
  ],
  "scene": 0,
  "scenes": [
    {
      "name": "Sketchfab_Scene",
      "nodes": [
        0
      ]
    }
  ],
  "textures": [
    {
      "sampler": 0,
      "source": 0
    },
    {
      "sampler": 0,
      "source": 1
    },
    {
      "sampler": 0,
      "source": 2
    }
  ]
}
